<svg width="718" height="129" viewBox="0 0 718 129" fill="none" xmlns="http://www.w3.org/2000/svg">
<g clip-path="url(#clip0_6964_22556)">
<path fill-rule="evenodd" clip-rule="evenodd" d="M227 44.7479V77H211.399V46.1131C211.399 40.8605 208.903 37.4986 203.911 37.4986C198.711 37.4986 195.799 41.1768 195.799 47.3742V77H180.199V46.1131C180.199 40.8605 177.703 37.4986 172.712 37.4986C167.512 37.4986 164.6 41.1768 164.6 47.3742V77H149V24.4713H164.6V29.3045C166.992 25.7334 171.567 23 178.536 23C184.671 23 189.247 25.5222 192.16 29.935C195.072 25.7334 199.855 23 207.239 23C219.2 23 227 31.6155 227 44.7479Z" fill="#141F48"/>
<path fill-rule="evenodd" clip-rule="evenodd" d="M285 23L266.932 75.6184C261.014 92.8678 251.611 99.7039 236.819 98.9432V83.7558C244.214 83.7558 247.701 81.3693 250.026 74.7502L229 23H246.434L258.161 56.1975L268.095 23H285Z" fill="#141F48"/>
<path fill-rule="evenodd" clip-rule="evenodd" d="M340.924 45.3211L341 76.8816L325.43 76.9185L325.358 47.6194C325.344 41.2464 321.287 38.2738 316.305 38.2855C310.595 38.2991 306.658 41.5976 306.676 48.8981L306.744 76.9631L291.173 77L291 5.03686L306.57 5L306.632 30.3932C309.425 26.5823 314.609 24.1026 321.461 24.0861C331.945 24.0609 340.89 31.4429 340.924 45.3211Z" fill="#E31C79"/>
<path fill-rule="evenodd" clip-rule="evenodd" d="M388.514 45.0582C386.839 39.0212 382.16 36.8437 377.487 36.8545C371.568 36.8692 367.628 39.7958 366.188 45.1123L388.514 45.0582ZM379.005 64.0403C383.263 64.0295 386.895 62.3553 388.965 60.0589L401.444 67.2156C396.373 74.3124 388.697 77.9763 378.832 77.9999C361.074 78.0422 350.037 66.089 350 50.5683C349.963 35.0456 361.151 23.0394 377.558 23.0001C392.719 22.9637 403.963 34.7084 404 50.4385C404.005 52.6259 403.803 54.71 403.392 56.6909L366.526 56.7793C368.512 62.1902 373.294 64.0541 379.005 64.0403Z" fill="#E31C79"/>
<path fill-rule="evenodd" clip-rule="evenodd" d="M450.342 50.4636C450.323 42.6506 445.113 37.767 437.938 37.7837C430.765 37.8014 425.577 42.7096 425.596 50.5226C425.614 58.3347 430.824 63.2183 437.999 63.2006C445.174 63.1839 450.36 58.2757 450.342 50.4636ZM465.875 24.3842L466 76.4674L450.405 76.5048L450.393 71.6084C446.97 75.5758 441.882 77.9832 434.916 77.9999C421.294 78.0324 410.037 66.0799 410 50.56C409.963 35.0391 421.163 23.0325 434.785 23.0001C441.75 22.9834 446.851 25.3672 450.292 29.3179L450.28 24.4215L465.875 24.3842Z" fill="#E31C79"/>
<path fill-rule="evenodd" clip-rule="evenodd" d="M474 0.0378071L491.793 0L492 76.9622L474.206 77L474 0.0378071Z" fill="#E31C79"/>
<path fill-rule="evenodd" clip-rule="evenodd" d="M522.123 40.1184L522.168 58.2663C522.178 62.6756 526.054 63.0762 532.966 62.6505L533 76.5943C512.478 78.6929 506.493 72.6581 506.458 58.3031L506.414 40.1552L498.037 40.1745L498 25.4102L506.378 25.3899L506.354 15.6502L522.052 11L522.087 25.3531L532.874 25.3279L532.911 40.0932L522.123 40.1184Z" fill="#E31C79"/>
<path fill-rule="evenodd" clip-rule="evenodd" d="M592.924 45.3207L593 76.8826L577.429 76.9195L577.358 47.6191C577.344 41.2459 573.287 38.2733 568.305 38.2859C562.595 38.2985 558.658 41.5981 558.676 48.8978L558.744 76.9631L543.173 77L543 5.0359L558.57 5L558.632 30.3925C561.425 26.5817 566.609 24.1019 573.461 24.0854C583.945 24.0611 592.89 31.4432 592.924 45.3207Z" fill="#E31C79"/>
<path fill-rule="evenodd" clip-rule="evenodd" d="M626.825 4L627 76.9606L610.236 77L610.103 21.6539L597.12 25.2294L593 10.9601L612.157 4.03443L626.825 4Z" fill="#141F48"/>
<path fill-rule="evenodd" clip-rule="evenodd" d="M678 60.8662C678.028 72.845 667.636 77.9733 656.399 77.9999C645.994 78.0254 638.077 74.0856 634 65.6583L647.507 57.9172C648.869 61.8728 651.787 64.0531 656.366 64.0423C660.112 64.0324 661.982 62.8833 661.977 60.7994C661.964 55.0704 636.375 58.1531 636.332 40.1328C636.305 28.7782 645.862 23.0256 656.684 23.0001C665.111 22.9794 672.612 26.7129 676.999 34.0972L663.699 41.3173C662.236 38.6121 660.15 36.7424 656.717 36.7513C654.011 36.7572 652.35 37.8021 652.354 39.6767C652.368 45.615 677.954 41.5945 678 60.8662Z" fill="#141F48"/>
<path fill-rule="evenodd" clip-rule="evenodd" d="M705.812 39.5596L705.858 57.9825C705.869 62.4586 709.856 62.8652 716.965 62.433L717 76.5881C695.891 78.7186 689.736 72.5924 689.699 58.0198L689.654 39.5969L681.037 39.6175L681 24.6285L689.617 24.6089L689.592 14.7207L705.739 10L705.776 24.5716L716.872 24.546L716.909 39.534L705.812 39.5596Z" fill="#141F48"/>
<path fill-rule="evenodd" clip-rule="evenodd" d="M124.999 23.0041C124.999 34.6052 115.595 44.0082 103.995 44.0082C92.3954 44.0082 82.9912 34.6052 82.9912 23.0041C82.9912 11.4042 92.3954 2 103.995 2C115.595 2 124.999 11.4042 124.999 23.0041Z" fill="#E31C79"/>
<path fill-rule="evenodd" clip-rule="evenodd" d="M42.0082 23.0041C42.0082 34.6052 32.604 44.0082 21.0041 44.0082C9.40418 44.0082 0 34.6052 0 23.0041C0 11.4042 9.40418 2 21.0041 2C32.604 2 42.0082 11.4042 42.0082 23.0041Z" fill="#141F48"/>
<path fill-rule="evenodd" clip-rule="evenodd" d="M62.5 85.3337C50.9942 85.3337 41.6663 76.0058 41.6663 64.5H0C0 99.0175 27.9814 127 62.5 127V85.3337Z" fill="#141F48"/>
<path fill-rule="evenodd" clip-rule="evenodd" d="M83.333 64.5C83.333 76.0058 74.006 85.3337 62.5 85.3337V127C97.0181 127 125 99.0175 125 64.5H83.333Z" fill="#E31C79"/>
<path d="M151.2 123V105.575H156.9C160.8 105.575 162.825 107.275 162.825 110.6C162.825 113.975 160.75 115.775 156.9 115.775H154.3V123H151.2ZM154.3 112.9H156.575C158.775 112.9 159.7 112.225 159.7 110.65C159.7 109.075 158.8 108.45 156.575 108.45H154.3V112.9ZM169.424 123.25C165.599 123.25 163.249 120.3 163.249 116.825C163.249 113.325 165.599 110.425 169.424 110.425C173.224 110.425 175.599 113.325 175.599 116.825C175.599 120.3 173.224 123.25 169.424 123.25ZM169.424 120.625C171.699 120.625 172.599 118.825 172.599 116.825C172.599 114.8 171.699 113.05 169.424 113.05C167.149 113.05 166.249 114.8 166.249 116.825C166.249 118.825 167.149 120.625 169.424 120.625ZM179.829 123L176.029 110.675H179.229L181.329 118.4L183.654 110.675H186.229L188.554 118.375L190.679 110.675H193.879L190.079 123H187.379L184.954 114.925L182.529 123H179.829ZM205.903 116.675C205.903 117.05 205.878 117.425 205.828 117.825H197.378C197.503 119.45 198.503 120.525 200.453 120.525C201.553 120.525 202.553 120.175 203.403 119.2L205.478 121.025C204.128 122.525 202.503 123.25 200.428 123.25C196.178 123.25 194.378 120.2 194.378 116.9C194.378 113.675 196.128 110.425 200.228 110.425C204.053 110.425 205.903 113.25 205.903 116.675ZM197.353 115.45H203.028C202.978 113.875 201.778 112.925 200.203 112.925C198.378 112.925 197.528 114.225 197.353 115.45ZM214.692 110.425C215.517 110.425 216.242 110.625 217.042 111.125L215.592 113.775C215.167 113.5 214.692 113.35 214.092 113.35C212.267 113.35 211.367 114.475 211.367 116.8V123H208.367V110.675H211.392V112.775C211.917 111.25 213.292 110.425 214.692 110.425ZM228.438 116.675C228.438 117.05 228.413 117.425 228.363 117.825H219.913C220.038 119.45 221.038 120.525 222.988 120.525C224.088 120.525 225.088 120.175 225.938 119.2L228.013 121.025C226.663 122.525 225.038 123.25 222.963 123.25C218.713 123.25 216.913 120.2 216.913 116.9C216.913 113.675 218.663 110.425 222.763 110.425C226.588 110.425 228.438 113.25 228.438 116.675ZM219.888 115.45H225.563C225.513 113.875 224.313 112.925 222.738 112.925C220.913 112.925 220.063 114.225 219.888 115.45ZM238.701 105.575H241.701V123H238.701V121.775C237.851 122.825 236.476 123.25 235.151 123.25C231.801 123.25 229.951 120.525 229.951 116.825C229.951 112.8 232.126 110.425 235.151 110.425C236.551 110.425 237.926 111 238.701 111.925V105.575ZM235.876 120.475C238.051 120.475 238.976 118.9 238.976 116.85C238.976 114.8 238.051 113.15 235.901 113.15C233.901 113.15 232.951 114.55 232.951 116.85C232.951 119.125 233.876 120.475 235.876 120.475ZM257.887 110.425C260.912 110.425 263.087 112.8 263.087 116.825C263.087 120.525 261.237 123.25 257.887 123.25C256.562 123.25 255.187 122.825 254.337 121.775V123H251.337V105.575H254.337V111.925C255.112 111 256.487 110.425 257.887 110.425ZM257.162 120.475C259.162 120.475 260.087 119.125 260.087 116.85C260.087 114.55 259.137 113.15 257.137 113.15C254.987 113.15 254.062 114.8 254.062 116.85C254.062 118.9 254.987 120.475 257.162 120.475ZM265.807 128.1L268.007 122.675L263.182 110.675H266.482L269.607 119.225L272.757 110.675H276.057L269.057 128.1H265.807Z" fill="#141F48"/>
<path fill-rule="evenodd" clip-rule="evenodd" d="M299.556 111.389V108.278C299.556 107.419 298.859 106.722 298 106.722C297.141 106.722 296.444 107.419 296.444 108.278V111.389H293.333C292.474 111.389 291.778 112.085 291.778 112.944C291.778 113.804 292.474 114.5 293.333 114.5H296.444V117.611C296.444 118.47 297.141 119.167 298 119.167C298.859 119.167 299.556 118.47 299.556 117.611V114.5H302.667C303.526 114.5 304.222 113.804 304.222 112.944C304.222 112.085 303.526 111.389 302.667 111.389H299.556ZM302.667 128.5C301.111 128.5 301.111 125.389 298 125.389C290.222 125.389 284 122.278 284 112.944C284 103.611 290.222 100.5 298 100.5C305.778 100.5 312 103.611 312 112.944C312 122.278 304.222 128.5 302.667 128.5Z" fill="#00AEC7"/>
<path d="M321.563 117.05V122.25C321.563 123.062 321.538 123.35 321.325 123.775C321.063 124.262 320.5 124.6 319.813 124.6C319.125 124.6 318.563 124.262 318.3 123.775C318.088 123.35 318.063 123.062 318.063 122.25V108.95C318.063 108.137 318.088 107.85 318.3 107.425C318.563 106.937 319.125 106.6 319.813 106.6C320.5 106.6 321.063 106.937 321.325 107.425C321.538 107.85 321.563 108.137 321.563 108.95V113.95H327.588V108.95C327.588 108.137 327.613 107.85 327.825 107.425C328.088 106.937 328.65 106.6 329.338 106.6C330.025 106.6 330.588 106.937 330.85 107.425C331.063 107.85 331.088 108.137 331.088 108.95V122.25C331.088 123.062 331.063 123.35 330.85 123.775C330.588 124.262 330.025 124.6 329.338 124.6C328.65 124.6 328.088 124.262 327.825 123.775C327.613 123.35 327.588 123.062 327.588 122.25V117.05H321.563ZM342.451 116.775C342.426 116.212 342.376 115.837 342.164 115.362C341.814 114.587 341.076 114.025 339.976 114.025C338.889 114.025 338.139 114.587 337.801 115.362C337.589 115.837 337.526 116.212 337.514 116.775H342.451ZM343.776 119H337.514C337.514 120.687 338.501 121.9 340.389 121.9C341.201 121.9 342.001 121.675 342.639 121.2C343.151 120.837 343.464 120.712 343.851 120.712C344.476 120.712 345.164 121.325 345.164 122.075C345.164 122.687 344.639 123.25 343.889 123.75C343.001 124.35 341.776 124.65 340.339 124.65C337.251 124.65 334.314 123.25 334.314 117.987C334.314 113.737 336.601 111.325 339.976 111.325C343.489 111.325 345.526 113.85 345.639 117.137C345.651 117.637 345.589 118.2 345.201 118.587C344.789 119 344.264 119 343.776 119ZM352.874 114.075C352.099 114.075 351.499 114.275 350.786 114.7C350.361 114.95 349.999 115.037 349.711 115.037C349.386 115.037 349.024 114.9 348.786 114.6C348.524 114.287 348.424 114 348.424 113.625C348.424 112.9 349.036 112.387 349.636 112.075C350.586 111.575 351.611 111.325 352.924 111.325C356.549 111.325 358.411 112.875 358.411 115.925V122.387C358.411 123.225 358.374 123.475 358.174 123.85C357.936 124.3 357.386 124.6 356.774 124.6C356.336 124.6 355.986 124.462 355.736 124.225C355.486 124 355.361 123.75 355.261 123.362C354.311 124.287 353.524 124.65 352.036 124.65C350.561 124.65 349.461 124.237 348.711 123.475C348.024 122.787 347.636 121.7 347.636 120.55C347.636 118.475 349.061 116.775 352.136 116.775H355.161V116.125C355.161 114.7 354.411 114.075 352.874 114.075ZM355.161 119.7V119H352.686C351.386 119 350.761 119.525 350.761 120.5C350.761 121.4 351.386 121.975 352.736 121.975C353.536 121.975 354.111 121.875 354.661 121.35C355.049 120.987 355.161 120.537 355.161 119.7ZM365.054 108.825V120.6C365.054 121.212 365.279 121.7 366.104 121.75C366.517 121.775 366.804 121.812 367.079 121.95C367.479 122.15 367.729 122.525 367.729 123.112C367.729 123.687 367.467 124.075 367.079 124.275C366.792 124.425 366.367 124.5 365.742 124.5H365.567C362.867 124.5 361.804 122.675 361.804 120.775V108.825C361.804 108.037 361.842 107.725 362.017 107.375C362.254 106.9 362.767 106.6 363.429 106.6C364.092 106.6 364.604 106.9 364.842 107.375C365.017 107.725 365.054 108.037 365.054 108.825ZM370.171 120.775V114.35H369.846C369.234 114.35 369.009 114.312 368.746 114.175C368.359 113.975 368.146 113.587 368.146 113.1C368.146 112.612 368.359 112.225 368.746 112.025C369.009 111.887 369.234 111.85 369.846 111.85H370.171V110.112C370.171 109.325 370.209 109.012 370.384 108.662C370.621 108.187 371.134 107.887 371.796 107.887C372.459 107.887 372.971 108.187 373.209 108.662C373.384 109.012 373.421 109.325 373.421 110.112V111.85H374.396C375.009 111.85 375.234 111.887 375.496 112.025C375.884 112.225 376.096 112.612 376.096 113.1C376.096 113.587 375.884 113.975 375.496 114.175C375.234 114.312 375.009 114.35 374.396 114.35H373.421V120.6C373.421 121.212 373.646 121.7 374.471 121.75C374.884 121.775 375.171 121.812 375.446 121.95C375.846 122.15 376.096 122.525 376.096 123.112C376.096 123.687 375.834 124.075 375.446 124.275C375.159 124.425 374.734 124.5 374.109 124.5H373.934C371.234 124.5 370.171 122.675 370.171 120.775ZM389.502 122.375C389.502 123.162 389.464 123.475 389.289 123.825C389.052 124.3 388.539 124.6 387.877 124.6C387.214 124.6 386.702 124.3 386.464 123.825C386.289 123.475 386.252 123.162 386.252 122.375V116.625C386.252 114.862 385.127 114.275 384.102 114.275C383.077 114.275 381.927 114.862 381.927 116.625V122.375C381.927 123.162 381.889 123.475 381.714 123.825C381.477 124.3 380.964 124.6 380.302 124.6C379.639 124.6 379.127 124.3 378.889 123.825C378.714 123.475 378.677 123.162 378.677 122.375V108.825C378.677 108.037 378.714 107.725 378.889 107.375C379.127 106.9 379.639 106.6 380.302 106.6C380.964 106.6 381.477 106.9 381.714 107.375C381.889 107.725 381.927 108.037 381.927 108.825V112.675C382.752 111.825 383.702 111.325 385.102 111.325C386.402 111.325 387.452 111.75 388.177 112.475C389.227 113.525 389.502 114.75 389.502 116.175V122.375ZM399.27 117.237L397.145 116.925C395.62 116.7 394.52 116.237 393.695 115.437C392.833 114.6 392.42 113.437 392.42 111.95C392.42 108.787 394.77 106.55 398.62 106.55C400.283 106.55 401.433 106.85 402.645 107.412C403.483 107.8 404.07 108.412 404.07 109.15C404.07 109.5 403.933 109.9 403.67 110.225C403.42 110.512 403.083 110.7 402.633 110.7C402.22 110.7 401.745 110.512 401.333 110.3C400.383 109.8 399.558 109.6 398.52 109.6C396.683 109.6 395.783 110.612 395.783 111.75C395.783 112.3 395.92 112.762 396.295 113.112C396.67 113.45 397.12 113.675 397.945 113.8L400.033 114.1C401.658 114.337 402.695 114.775 403.445 115.487C404.395 116.375 404.82 117.662 404.82 119.25C404.82 122.687 401.945 124.65 398.208 124.65C396.27 124.65 395.145 124.387 393.783 123.737C392.645 123.2 392.008 122.7 392.008 121.7C392.008 121.325 392.183 120.862 392.483 120.562C392.77 120.275 393.095 120.175 393.458 120.175C393.858 120.175 394.208 120.3 394.87 120.65C396.108 121.3 396.92 121.575 398.245 121.575C400.295 121.575 401.408 120.75 401.408 119.337C401.408 118.725 401.233 118.2 400.87 117.85C400.558 117.55 400.108 117.362 399.27 117.237ZM418.652 122.375C418.652 123.162 418.615 123.475 418.44 123.825C418.202 124.3 417.69 124.6 417.027 124.6C416.365 124.6 415.852 124.3 415.615 123.825C415.44 123.475 415.402 123.162 415.402 122.375V116.625C415.402 114.862 414.277 114.275 413.252 114.275C412.227 114.275 411.077 114.862 411.077 116.625V122.375C411.077 123.162 411.04 123.475 410.865 123.825C410.627 124.3 410.115 124.6 409.452 124.6C408.79 124.6 408.277 124.3 408.04 123.825C407.865 123.475 407.827 123.162 407.827 122.375V108.825C407.827 108.037 407.865 107.725 408.04 107.375C408.277 106.9 408.79 106.6 409.452 106.6C410.115 106.6 410.627 106.9 410.865 107.375C411.04 107.725 411.077 108.037 411.077 108.825V112.675C411.902 111.825 412.852 111.325 414.252 111.325C415.552 111.325 416.602 111.75 417.327 112.475C418.377 113.525 418.652 114.75 418.652 116.175V122.375ZM426.433 114.075C425.658 114.075 425.058 114.275 424.346 114.7C423.921 114.95 423.558 115.037 423.271 115.037C422.946 115.037 422.583 114.9 422.346 114.6C422.083 114.287 421.983 114 421.983 113.625C421.983 112.9 422.596 112.387 423.196 112.075C424.146 111.575 425.171 111.325 426.483 111.325C430.108 111.325 431.971 112.875 431.971 115.925V122.387C431.971 123.225 431.933 123.475 431.733 123.85C431.496 124.3 430.946 124.6 430.333 124.6C429.896 124.6 429.546 124.462 429.296 124.225C429.046 124 428.921 123.75 428.821 123.362C427.871 124.287 427.083 124.65 425.596 124.65C424.121 124.65 423.021 124.237 422.271 123.475C421.583 122.787 421.196 121.7 421.196 120.55C421.196 118.475 422.621 116.775 425.696 116.775H428.721V116.125C428.721 114.7 427.971 114.075 426.433 114.075ZM428.721 119.7V119H426.246C424.946 119 424.321 119.525 424.321 120.5C424.321 121.4 424.946 121.975 426.296 121.975C427.096 121.975 427.671 121.875 428.221 121.35C428.608 120.987 428.721 120.537 428.721 119.7ZM438.626 112.737C439.251 111.987 440.439 111.325 441.726 111.325C442.739 111.325 443.389 111.537 443.976 111.925C444.464 112.25 444.801 112.725 444.801 113.287C444.801 113.762 444.601 114.187 444.314 114.475C444.026 114.762 443.626 114.925 443.226 114.925C442.901 114.925 442.551 114.812 442.114 114.587C441.726 114.387 441.314 114.25 440.876 114.25C439.789 114.25 438.714 115 438.714 116.65V122.375C438.714 123.162 438.676 123.475 438.501 123.825C438.264 124.3 437.751 124.6 437.089 124.6C436.426 124.6 435.914 124.3 435.676 123.825C435.501 123.475 435.464 123.162 435.464 122.375V113.587C435.464 112.75 435.501 112.5 435.701 112.125C435.939 111.675 436.489 111.375 437.101 111.375C437.539 111.375 437.889 111.512 438.139 111.75C438.401 111.987 438.551 112.262 438.626 112.737ZM453.779 116.775C453.754 116.212 453.704 115.837 453.492 115.362C453.142 114.587 452.404 114.025 451.304 114.025C450.217 114.025 449.467 114.587 449.129 115.362C448.917 115.837 448.854 116.212 448.842 116.775H453.779ZM455.104 119H448.842C448.842 120.687 449.829 121.9 451.717 121.9C452.529 121.9 453.329 121.675 453.967 121.2C454.479 120.837 454.792 120.712 455.179 120.712C455.804 120.712 456.492 121.325 456.492 122.075C456.492 122.687 455.967 123.25 455.217 123.75C454.329 124.35 453.104 124.65 451.667 124.65C448.579 124.65 445.642 123.25 445.642 117.987C445.642 113.737 447.929 111.325 451.304 111.325C454.817 111.325 456.854 113.85 456.967 117.137C456.979 117.637 456.917 118.2 456.529 118.587C456.117 119 455.592 119 455.104 119Z" fill="#141F48"/>
</g>
<defs>
<clipPath id="clip0_6964_22556">
<rect width="718" height="129" fill="white"/>
</clipPath>
</defs>
</svg>
